<svg id="immigration" width="28px" height="27px" viewBox="0 0 28 27" version="1.1" xmlns="http://www.w3.org/2000/svg" xmlns:xlink="http://www.w3.org/1999/xlink">
    <g stroke="none" stroke-width="1" fill="none" fill-rule="evenodd">
        <g transform="translate(-210.000000, -1162.000000)" stroke="#1098DB" stroke-width="1.16">
            <g transform="translate(199.000000, 1150.000000)">
                <g transform="translate(12.000000, 12.500000)">
                    <g id="Group" transform="translate(0.000000, 4.350000)">
                        <rect id="Rectangle" x="0.029" y="0.058" width="10.034" height="14.964"></rect>
                        <g transform="translate(1.450000, 2.610000)" id="Path" stroke-linejoin="round">
                            <path d="M6.641,3.335 C6.641,5.075 5.22,6.496 3.48,6.496 C1.74,6.496 0.319,5.075 0.319,3.335 C0.319,1.595 1.74,0.174 3.48,0.174 C5.22,0.145 6.641,1.566 6.641,3.335 Z" stroke-linecap="round"></path>
                            <path d="M4.495,3.335 C4.495,5.075 4.031,6.496 3.451,6.496 C2.871,6.496 2.407,5.075 2.407,3.335 C2.407,1.595 2.871,0.174 3.451,0.174 C4.031,0.145 4.495,1.566 4.495,3.335 Z" stroke-linecap="round"></path>
                            <line x1="0.232" y1="3.335" x2="6.989" y2="3.335"></line>
                        </g>
                        <line x1="2.697" y1="12.035" x2="7.424" y2="12.035" id="Path" stroke-linejoin="round"></line>
                    </g>
                    <path d="M25.462,2.958 L25.462,9.338 C25.462,10.933 24.157,12.238 22.562,12.238 L21.199,12.238 C19.604,12.238 18.299,10.933 18.299,9.338 L18.299,6.438" id="Path"></path>
                    <polygon id="Path" points="15.602 6.641 25.462 6.641 25.462 3.538 17.922 3.538"></polygon>
                    <polygon id="Path" points="17.922 3.364 25.462 3.364 25.462 0.261 16.182 0.261"></polygon>
                    <line x1="18.676" y1="20.706" x2="18.676" y2="26.158" id="Path"></line>
                    <path d="M25.462,26.158 L25.462,14.181 L21.605,14.181 C20.59,14.181 19.836,14.761 19.198,15.457" id="Path"></path>
                    <polyline id="Path" points="19.285 15.341 13.369 21.257 11.339 19.227"></polyline>
                    <line x1="18.879" y1="24.128" x2="25.839" y2="24.128" id="Path"></line>
                    <polyline id="Path" points="7.801 20.619 11.832 24.621 14.906 24.621 20.358 19.169"></polyline>
                </g>
            </g>
        </g>
    </g>
</svg>