<?xml version="1.0" encoding="UTF-8"?>
<svg version="1.1" viewBox="0 0 2048 1581" width="1280" height="1280" xmlns="http://www.w3.org/2000/svg">
<path transform="translate(0)" d="m0 0h2048v1581h-2048z" fill="#232222"/>
<path transform="translate(1063,272)" d="m0 0 2 2-8 20-9 20-15 29-17 28-13 22-9 14-14 22-24 38-17 28-16 29-14 29-8 20-2 3h399l74-1 6-10 10-18 14-25 12-21 15-27 3-6-2 1h-29l1-7 13-33 14-27 13-23 12-22 12-19 17-28 14-20 9-13 1-1 26-1 10-2 114-1h67l39 1-3 9-8 16-9 19-13 23-12 23-13 23-14 25-14 24-12 22-12 21-10 17-15 26-14 24-15 26-14 24-11 19-13 22-14 24-17 29-14 24-17 29-14 24-15 26-9 15-15 26-13 23-16 28-30 54-13 23-14 25-10 17-13 22-10 16-10 15-11 18-7 1h-122l-91-1 1-4 13-24 12-21 45-81 9-16 16-29 14-25 15-27 14-25 15-27 12-22h-463l-24 32-10 14-13 21-15 24-16 27-15 26-14 25-14 24-16 29-13 24-13 23-12 22-10 18-16 29-12 22-13 23-14 25-12 21-14 25-16 27-9 15-17 28-12 20-11 16-16 23-14 20-52 1h-166l2-5 13-23 10-17 8-14 14-24 15-27 10-17 15-26 12-21 15-26 16-28 13-23 10-17 8-14 14-24 10-18 30-52 16-28 30-52 16-28 14-24 13-23 12-21 10-17 10-18 14-24 13-23 14-24 16-28 30-52 16-28 13-23 10-17 14-25 10-17 16-28 14-24 52-91 30-52 28-49 6-9 4-1 156-2z" fill="#FEFEFE"/>
<path transform="translate(1059,878)" d="m0 0h7l-26 52-10 19-16 27-16 26-14 23-15 24-12 20-15 26-9 16-14 27-7 15-11 27h42l326 1h105l16-29 9-16 48-87 15-27 32-58 9-12 9-10 5 5 15 26 15 25 15 26 14 24 17 29 16 27 14 24 17 29 13 22 17 29 13 22 15 26 16 27 17 29 10 17 17 29 10 16 9-1 32-5 27-2 56-2 117-3h39v24h-33l-79-2-36-2h-21l-21 2h-16l-27-4-10-1-26-1-13-1h-38l-173 1h-280l-374 1h-341l1-5 56-98 13-23 14-24 15-27 14-24 26-46 16-28 13-23 15-26 12-21 13-23 16-28 9-16 16-28 15-26 16-28 3-3 29-1z" fill="#FEFEFE"/>
</svg>
